<?xml version="1.0" encoding="UTF-8"?>
<svg version="1.1" xmlns="http://www.w3.org/2000/svg" width="50" height="50">
<path d="M0 0 C2.0495098 1.21018674 3.73438334 2.48031598 5.48828125 4.0859375 C6.25785156 4.77236328 6.25785156 4.77236328 7.04296875 5.47265625 C10.86028281 9.40858741 11.40058912 12.82440962 11.48828125 18.0859375 C8.88522233 20.68899642 7.06549586 20.33418728 3.51928711 20.36383057 C2.29737671 20.35775787 2.29737671 20.35775787 1.05078125 20.3515625 C0.21490479 20.35347595 -0.62097168 20.3553894 -1.48217773 20.35736084 C-3.25081686 20.35872286 -5.01946598 20.35502526 -6.78808594 20.34667969 C-9.50087869 20.33598025 -12.21300919 20.34657426 -14.92578125 20.359375 C-16.64192855 20.35805341 -18.35807544 20.35549102 -20.07421875 20.3515625 C-21.29612915 20.35763519 -21.29612915 20.35763519 -22.54272461 20.36383057 C-28.28179947 20.31585678 -28.28179947 20.31585678 -30.51171875 18.0859375 C-30.62246326 11.66275604 -28.83371798 8.56617592 -24.59375 3.84765625 C-17.76514763 -1.93039191 -8.39788018 -3.05614924 0 0 Z M-25.3125 10.171875 C-26.88909545 12.43696077 -26.88909545 12.43696077 -27.51171875 17.0859375 C-15.63171875 17.0859375 -3.75171875 17.0859375 8.48828125 17.0859375 C7.53506097 12.31983609 7.20357716 11.25040856 4.17578125 7.8984375 C3.58152344 7.22425781 2.98726562 6.55007812 2.375 5.85546875 C-2.02904361 1.72496822 -5.98904571 1.70417042 -11.828125 1.84375 C-18.10068513 2.40983257 -21.37344561 5.64351326 -25.3125 10.171875 Z " fill="#000000" transform="translate(34.51171875,25.9140625)"/>
<path d="M0 0 C2.69105198 2.17574416 4.45532928 3.91065856 6 7 C6.54724071 12.69130337 5.59333707 15.56117185 2 20 C-1.21694364 21.60847182 -4.52137222 21.61309149 -8 21 C-10.69105198 18.82425584 -12.45532928 17.08934144 -14 14 C-14.54724071 8.30869663 -13.59333707 5.43882815 -10 1 C-6.78305636 -0.60847182 -3.47862778 -0.61309149 0 0 Z M-8.8125 4.125 C-10.51056927 6.806162 -10.8733144 8.83285993 -11 12 C-9.86220128 14.32731556 -8.83159286 16.16840714 -7 18 C-2.89569724 18.38910922 -2.89569724 18.38910922 0.8125 16.875 C2.51056927 14.193838 2.8733144 12.16714007 3 9 C1.86220128 6.67268444 0.83159286 4.83159286 -1 3 C-5.10430276 2.61089078 -5.10430276 2.61089078 -8.8125 4.125 Z " fill="#000000" transform="translate(29,2)"/>
</svg>
